<svg width="90" height="77" viewBox="0 0 90 77" fill="none" xmlns="http://www.w3.org/2000/svg">
<path fill-rule="evenodd" clip-rule="evenodd" d="M9 0H2C0.895431 0 0 0.89543 0 2V9V18V27V34C0 35.1046 0.89543 36 2 36H9H18H25C26.1046 36 27 35.1046 27 34V27V18V11C27 9.89543 26.1046 9 25 9H18V2C18 0.895431 17.1046 0 16 0H9ZM18 9V18V25C18 26.1046 17.1046 27 16 27H11C9.89543 27 9 26.1046 9 25V18V11C9 9.89543 9.89543 9 11 9H18ZM40.5 0H33.5C32.3954 0 31.5 0.89543 31.5 2V9V18V27V34C31.5 35.1046 32.3954 36 33.5 36H40.5H49.5H56.5C57.6046 36 58.5 35.1046 58.5 34V29C58.5 27.8954 57.6046 27 56.5 27H49.5H42.5C41.3954 27 40.5 26.1046 40.5 25V18V11C40.5 9.89543 41.3954 9 42.5 9H47.5C48.6046 9 49.5 9.89543 49.5 11V16C49.5 17.1046 50.3954 18 51.5 18H56.5C57.6046 18 58.5 17.1046 58.5 16V9V2C58.5 0.895431 57.6046 0 56.5 0H49.5H40.5ZM0 42.5C0 41.3954 0.89543 40.5 2 40.5H9H18H25C26.1046 40.5 27 41.3954 27 42.5V49.5V56.5C27 57.6046 26.1046 58.5 25 58.5H20C18.8954 58.5 18 57.6046 18 56.5V51.5C18 50.3954 17.1046 49.5 16 49.5H11C9.89543 49.5 9 50.3954 9 51.5V58.5V65.5C9 66.6046 9.89543 67.5 11 67.5H18H25C26.1046 67.5 27 68.3954 27 69.5V74.5C27 75.6046 26.1046 76.5 25 76.5H18H9H2C0.895431 76.5 0 75.6046 0 74.5V67.5V58.5V49.5V42.5ZM40.5 40.5H33.5C32.3954 40.5 31.5 41.3954 31.5 42.5V47.5C31.5 48.6046 32.3954 49.5 33.5 49.5H40.5H47.5C48.6046 49.5 49.5 50.3954 49.5 51.5V58.5V67.5V74.5C49.5 75.6046 50.3954 76.5 51.5 76.5H56.5C57.6046 76.5 58.5 75.6046 58.5 74.5V67.5V58.5V49.5V42.5C58.5 41.3954 57.6046 40.5 56.5 40.5H49.5H40.5ZM63 42.5C63 41.3954 63.8954 40.5 65 40.5H72H81H88C89.1046 40.5 90 41.3954 90 42.5V47.5C90 48.6046 89.1046 49.5 88 49.5H81H74C72.8954 49.5 72 50.3954 72 51.5V58.5V65.5C72 66.6046 72.8954 67.5 74 67.5H79C80.1046 67.5 81 66.6046 81 65.5V60.5C81 59.3954 81.8954 58.5 83 58.5H88C89.1046 58.5 90 59.3954 90 60.5V67.5V74.5C90 75.6046 89.1046 76.5 88 76.5H81H72H65C63.8954 76.5 63 75.6046 63 74.5V67.5V58.5V49.5V42.5ZM72 0H65C63.8954 0 63 0.89543 63 2V9V16C63 17.1046 63.8954 18 65 18H70C71.1046 18 72 17.1046 72 16V11C72 9.89543 72.8954 9 74 9H81H88C89.1046 9 90 8.10457 90 7V2C90 0.895431 89.1046 0 88 0H81H72ZM90 20C90 18.8954 89.1046 18 88 18H83C81.8954 18 81 18.8954 81 20V25C81 26.1046 80.1046 27 79 27H72H65C63.8954 27 63 27.8954 63 29V34C63 35.1046 63.8954 36 65 36H72H81H88C89.1046 36 90 35.1046 90 34V27V20ZM40.5 60.5C40.5 59.3954 39.6046 58.5 38.5 58.5H33.5C32.3954 58.5 31.5 59.3954 31.5 60.5V67.5V74.5C31.5 75.6046 32.3954 76.5 33.5 76.5H38.5C39.6046 76.5 40.5 75.6046 40.5 74.5V67.5V60.5Z" fill="#111111"/>
</svg>
